<svg xmlns="http://www.w3.org/2000/svg" viewBox="0 0 144.08 44"><defs><style>.cls-1,.cls-2{fill:#fff;}.cls-2{fill-rule:evenodd;}</style></defs><title>アセット 1</title><g id="レイヤー_2" data-name="レイヤー 2"><g id="Layer_1" data-name="Layer 1"><path class="cls-1" d="M142.17,14.33a2,2,0,1,1,1.91-2.09v.09a2,2,0,0,1-1.9,2Zm0-3.61a1.63,1.63,0,1,0,1.58,1.68v-.05A1.61,1.61,0,0,0,142.17,10.72Zm.49,2.73-.4-.7a.23.23,0,0,0-.22-.2h-.2v.9h-.36V11.26h.77a.87.87,0,0,1,.45.1.63.63,0,0,1,.26.54.59.59,0,0,1-.42.6h0l.52.89Zm-.12-1.76a.47.47,0,0,0-.26,0h-.4v.54h.4c.19,0,.36,0,.36-.27a.24.24,0,0,0-.09-.22Z"/><path class="cls-2" d="M22,0A22,22,0,1,0,44,22,22,22,0,0,0,22,0Zm0,41.73A19.75,19.75,0,1,1,41.78,22,19.75,19.75,0,0,1,22,41.73h0Z"/><path class="cls-1" d="M29,18.06a24.19,24.19,0,0,1-.61-2.4c-.43-.84-2.78-.94-4.21-.38-1.2.47-2.38,1.43-2.31,2.38.08.52.17,1.07.28,1.65.71,3.29,2.69,9.6,2.49,10.66.15-.83-1.4-4.86-2.42-8.15-4.38-3.89-7.65-5-10-4.38S8.43,20.5,8,22.87c-.82,4.63,1.16,9.76,2.13,10.29.24.13.66.76,2.39.26a3.66,3.66,0,0,0,2.55-1.92c.33-1.15-.82-5.7-.84-7.74h0a3.69,3.69,0,0,1,0-.47,1.41,1.41,0,0,1,1.29-1.5c-.55.16-.73.7-.81,1.41,1.07.4,2.13,1.25,4.51,3.27,3.17,2.68,5.2,6,7.3,6.57,2.57.63,4.24-.75,4.64-3.44.29-1.94-.78-6.35-1.61-9.54-.2-.7-.39-1.37-.55-2Z"/><path class="cls-1" d="M28.54,10.5A4.1,4.1,0,0,1,29,12.35a2.3,2.3,0,0,1-.27,1.15,1.41,1.41,0,0,0,0,.41v.49a3.61,3.61,0,0,1,.79.24c1.29-1.22,1.71-3,1.41-3.66a8.33,8.33,0,0,0-4.34-2A3.34,3.34,0,0,1,28.54,10.5Zm1,7.51,1.17,1a12.2,12.2,0,0,0,2.16-1.69l.08-.08a20.86,20.86,0,0,0-3.41-2.08,5.1,5.1,0,0,1-.69.45c.1.52.26,1.16.48,1.95l.16.48Zm3.75-.49-.14.13a14,14,0,0,1-2.09,1.67,6.32,6.32,0,0,0,2.44,1.45A6.79,6.79,0,0,0,35.07,19C34.75,18.68,34.07,18.13,33.29,17.52Zm3.66,0a6.44,6.44,0,0,0-1.61-2.22,24.31,24.31,0,0,1-1.79,2c.87.67,1.54,1.24,1.77,1.44a5.43,5.43,0,0,0,1.58-1v-.15ZM28.36,15a3.33,3.33,0,0,1,0-1.6V13.3a3.47,3.47,0,0,0-.2-2.59,3.18,3.18,0,0,0-3.73-1.36c-1.07.45-.75,3.16-.13,5.46a5.52,5.52,0,0,1,4,.15Zm5.84,5.75a5.41,5.41,0,0,0,1.34-.87,4.26,4.26,0,0,0,1.11-1.45,5.17,5.17,0,0,1-1.28.71,5.33,5.33,0,0,1-1.26,1.61Zm-5.39-5.54.32-.21-.37-.11v.32Zm1.1-.32A22.25,22.25,0,0,1,33.26,17a23.19,23.19,0,0,0,1.84-2c-1.35-1.46-3-2.93-3-2.93l-.74-.64a3.79,3.79,0,0,1-.19,1.25,5.48,5.48,0,0,1-1.32,2.19Zm-6,.11c-.3-1.11-.89-3.63-.41-5.06-1.44,1.11-2.07,3.2-1.71,6.73A4.65,4.65,0,0,1,23.91,15Z"/><path class="cls-1" d="M106.37,29c3.53,0,6.12-2.49,6.12-6.87S109.78,15,106.25,15h-4.1V29Zm-.32-18c6.27,0,10.88,4.41,10.88,11.13S112.39,33,106.18,33H99.24a1.38,1.38,0,0,1-1.38-1.38V12.32a1.38,1.38,0,0,1,1.38-1.38Z"/><path class="cls-1" d="M130.35,29.35A7.37,7.37,0,1,0,123,22a7.37,7.37,0,0,0,7.37,7.37ZM118.73,22a11.61,11.61,0,1,1,11.62,11.61A11.61,11.61,0,0,1,118.73,22Z"/><path class="cls-1" d="M83.62,29.35A7.37,7.37,0,1,0,76.25,22a7.37,7.37,0,0,0,7.37,7.37ZM72,22A11.61,11.61,0,1,1,83.62,33.59,11.61,11.61,0,0,1,72,22Z"/><path class="cls-1" d="M66.26,11a1.39,1.39,0,0,0-1.21.72L59.54,22,54,11.68A1.37,1.37,0,0,0,52.75,11H50.9a1.39,1.39,0,0,0-1.36,1.38v19.3A1.37,1.37,0,0,0,50.91,33h1.41a1.37,1.37,0,0,0,1.38-1.36h0v-13l4.38,8.12a1.39,1.39,0,0,0,1.21.72h.47A1.39,1.39,0,0,0,61,26.75l4.38-8.14v13A1.4,1.4,0,0,0,66.73,33h1.4a1.38,1.38,0,0,0,1.38-1.38V12.32A1.37,1.37,0,0,0,68.14,11H66.26Z"/></g></g></svg>