<svg xmlns="http://www.w3.org/2000/svg" viewBox="0 0 1851.55 691.3"><defs><style>.cls-1{fill:#fff;}.cls-2{fill:#d04837;}</style></defs><title>アセット 1</title><g id="レイヤー_2" data-name="レイヤー 2"><g id="レイヤー_1-2" data-name="レイヤー 1"><path class="cls-1" d="M50.28,83.94V260.55H310.41v50.28H0V0H310.41V50.28H50.28Zm144.61,46.13v50.28H94.74V130.07Z"/><path class="cls-1" d="M660.91,0h35.37V310.83H646V86L540.86,190.74,435.73,85.19V310.83H385.45V0h35.78L541.07,120.09Z"/><path class="cls-1" d="M808.89,83.94v46.13H953.5v50.28H808.89v80.2H1069v50.28H758.61V0H1069V50.28H808.89Z"/><path class="cls-1" d="M1433.46,0V50.28H1303.39V310.83h-50.28V50.28H1123V0h310.42Z"/><path class="cls-1" d="M1739.72,0H1790V310.83h-50.28V180.35H1529.45V310.83h-50.28V0h50.28V130.07h210.27V0Z"/><path class="cls-2" d="M263.38,681.45H203.32L122.58,570.68H48.25V681.45H0V521.94H134.89a59.66,59.66,0,0,0,59.57-59.57q0-24.6-17.48-42.09T134.89,402.8H0V354.56H134.89a106,106,0,0,1,54.4,14.52,108.14,108.14,0,0,1,39.39,39.39,107.72,107.72,0,0,1-3.7,114,108,108,0,0,1-48.24,39.88Z"/><path class="cls-2" d="M559.75,356v48.24H320V356Zm-191,277.16h191v48.25H320V494.37H510.52v48.74H368.73Z"/><path class="cls-2" d="M879.75,356.53l-.5,334.77L618.82,415.11V346.68L831,572.65l.49-216.12ZM618.82,521h48.25V681.45H618.82Z"/><path class="cls-2" d="M1149,377.94a163.37,163.37,0,0,1,59.33,59.33,162.51,162.51,0,0,1,0,163A163.27,163.27,0,0,1,1149,659.54a158.79,158.79,0,0,1-81.72,21.91H958V493.39h48.24V633.2h61a111.09,111.09,0,0,0,57.35-15.5,114.28,114.28,0,0,0,41.6-41.85,114.12,114.12,0,0,0-99-171.57H958V356h109.29A158.88,158.88,0,0,1,1149,377.94Z"/><path class="cls-2" d="M1529.09,356v48.24H1289.34V356Zm-191,277.16h191v48.25H1289.34V494.37h190.52v48.74H1338.07Z"/><path class="cls-2" d="M1851.55,681.45h-60.07l-80.73-110.77h-74.34V681.45h-48.25V521.94h134.89a59.65,59.65,0,0,0,59.57-59.57q0-24.6-17.47-42.09t-42.1-17.48H1588.16V354.56h134.89a105.91,105.91,0,0,1,54.4,14.52,108.14,108.14,0,0,1,39.39,39.39,107.75,107.75,0,0,1-3.69,114,108,108,0,0,1-48.25,39.88Z"/></g></g></svg>