<svg xmlns="http://www.w3.org/2000/svg" viewBox="0 0 3723.68 344.61"><defs><style>.cls-1{fill:#fff;}.cls-2{fill:#d04837;}</style></defs><title>アセット 3</title><g id="レイヤー_2" data-name="レイヤー 2"><g id="レイヤー_1-2" data-name="レイヤー 1"><path class="cls-1" d="M50.28,100.26V276.87H310.41v50.28H0V16.32H310.41V66.6H50.28Zm144.61,46.13v50.28H94.74V146.39Z"/><path class="cls-1" d="M660.91,16.32h35.37V327.15H646V102.34L540.86,207.05,435.73,101.51V327.15H385.45V16.32h35.78L541.07,136.41Z"/><path class="cls-1" d="M808.89,100.26v46.13H953.5v50.28H808.89v80.2H1069v50.28H758.61V16.32H1069V66.6H808.89Z"/><path class="cls-1" d="M1433.46,16.32V66.6H1303.39V327.15h-50.28V66.6H1123V16.32h310.42Z"/><path class="cls-1" d="M1739.72,16.32H1790V327.15h-50.28V196.67H1529.45V327.15h-50.28V16.32h50.28V146.39h210.27V16.32Z"/><path class="cls-2" d="M2135.51,334.77h-60.06L1994.71,224h-74.34V334.77h-48.24V175.26H2007a57.34,57.34,0,0,0,42.09-17.48,57.34,57.34,0,0,0,17.48-42.09,57.38,57.38,0,0,0-17.48-42.09A57.38,57.38,0,0,0,2007,56.12H1872.13V7.88H2007a106,106,0,0,1,54.4,14.52,108,108,0,0,1,39.38,39.38,105.08,105.08,0,0,1,14.53,53.91,105.27,105.27,0,0,1-18.22,60.06,108,108,0,0,1-48.24,39.88Z"/><path class="cls-2" d="M2431.88,9.35V57.6H2192.12V9.35Zm-191,277.17h191v48.25H2192.12V147.69h190.53v48.74H2240.86Z"/><path class="cls-2" d="M2751.87,9.85l-.49,334.76L2491,68.43V0l212.19,226,.49-216.12ZM2491,174.28h48.25V334.77H2491Z"/><path class="cls-2" d="M3021.16,31.26a163.42,163.42,0,0,1,59.33,59.32,158,158,0,0,1,21.9,81.23,158.91,158.91,0,0,1-21.9,81.73,163.27,163.27,0,0,1-59.33,59.32,158.79,158.79,0,0,1-81.72,21.91H2830.15V146.71h48.24V286.52h61.05A111,111,0,0,0,2996.79,271a114.18,114.18,0,0,0,41.6-41.84,115.41,115.41,0,0,0,0-114.71,113.78,113.78,0,0,0-98.95-56.86H2830.15V9.35h109.29A158.88,158.88,0,0,1,3021.16,31.26Z"/><path class="cls-2" d="M3401.22,9.35V57.6H3161.46V9.35Zm-191,277.17h191v48.25H3161.46V147.69H3352v48.74H3210.2Z"/><path class="cls-2" d="M3723.68,334.77h-60.07L3582.88,224h-74.34V334.77h-48.25V175.26h134.89a57.38,57.38,0,0,0,42.1-17.48,57.37,57.37,0,0,0,17.47-42.09,57.41,57.41,0,0,0-17.47-42.09,57.41,57.41,0,0,0-42.1-17.48H3460.29V7.88h134.89a105.91,105.91,0,0,1,54.4,14.52A108.11,108.11,0,0,1,3689,61.78a105.17,105.17,0,0,1,14.52,53.91,105.33,105.33,0,0,1-18.21,60.06A108.05,108.05,0,0,1,3637,215.63Z"/></g></g></svg>